<svg width="18" height="18" viewBox="0 0 18 18" fill="none" xmlns="http://www.w3.org/2000/svg">
<path d="M5.01439 8.08916C4.81261 7.72608 4.49598 7.44029 4.1142 7.27664C3.73242 7.11299 3.30711 7.08075 2.90502 7.18497C2.50293 7.2892 2.14684 7.52399 1.89263 7.85249C1.63842 8.181 1.50049 8.58462 1.50049 8.99999C1.50049 9.41537 1.63842 9.81898 1.89263 10.1475C2.14684 10.476 2.50293 10.7108 2.90502 10.815C3.30711 10.9192 3.73242 10.887 4.1142 10.7233C4.49598 10.5597 4.81261 10.2739 5.01439 9.91082M5.01439 8.08916C5.16439 8.35916 5.25023 8.66916 5.25023 8.99999C5.25023 9.33082 5.16439 9.64166 5.01439 9.91082M5.01439 8.08916L12.9861 3.66082M5.01439 9.91082L12.9861 14.3392M12.9861 3.66082C13.1029 3.88094 13.2625 4.07555 13.4555 4.23327C13.6485 4.39098 13.8709 4.50865 14.1099 4.57939C14.3489 4.65012 14.5996 4.67251 14.8473 4.64524C15.095 4.61796 15.3348 4.54158 15.5527 4.42054C15.7705 4.29951 15.9621 4.13626 16.1161 3.94034C16.2701 3.74441 16.3836 3.51975 16.4497 3.27948C16.5159 3.03921 16.5336 2.78815 16.5016 2.54099C16.4696 2.29382 16.3887 2.05552 16.2636 1.83999C16.0169 1.41528 15.6135 1.10427 15.1401 0.973836C14.6666 0.8434 14.1608 0.903944 13.7315 1.14245C13.3022 1.38096 12.9836 1.7784 12.8442 2.24932C12.7048 2.72024 12.7557 3.22706 12.9861 3.66082ZM12.9861 14.3392C12.8664 14.5545 12.7904 14.7912 12.7623 15.0359C12.7342 15.2806 12.7546 15.5285 12.8222 15.7653C12.8899 16.0021 13.0036 16.2233 13.1567 16.4162C13.3099 16.6091 13.4995 16.77 13.7148 16.8896C13.9301 17.0092 14.1669 17.0852 14.4116 17.1133C14.6563 17.1414 14.9041 17.1211 15.1409 17.0534C15.3778 16.9857 15.599 16.8721 15.7919 16.7189C15.9848 16.5658 16.1456 16.3761 16.2652 16.1608C16.5068 15.726 16.5657 15.213 16.4291 14.7347C16.2924 14.2564 15.9713 13.852 15.5365 13.6104C15.1016 13.3688 14.5886 13.3099 14.1103 13.4466C13.632 13.5832 13.2276 13.9043 12.9861 14.3392Z" stroke="#3A4980" stroke-width="1.5" stroke-linecap="round" stroke-linejoin="round"/>
</svg>
